<?xml version="1.0" encoding="utf-8"?>
<!-- Generator: Adobe Illustrator 16.0.0, SVG Export Plug-In . SVG Version: 6.00 Build 0)  -->
<!DOCTYPE svg PUBLIC "-//W3C//DTD SVG 1.1//EN" "http://www.w3.org/Graphics/SVG/1.1/DTD/svg11.dtd">
<svg version="1.1" id="Calque_1" xmlns="http://www.w3.org/2000/svg" xmlns:xlink="http://www.w3.org/1999/xlink" x="0px" y="0px"
	 width="1920px" height="1080px" viewBox="0 0 1920 1080" enable-background="new 0 0 1920 1080" xml:space="preserve">
<circle id="cercle_1" fill="#FFFFFF" cx="961.869" cy="445.607" r="208.785"/>
<path id="cercle_2" fill="none" stroke="#662482" stroke-width="5" stroke-miterlimit="10" d="M1160.596,449.463
	c0,109.682-88.919,198.601-198.603,198.601c-109.68,0-198.599-88.919-198.599-198.601c0-109.684,88.919-198.601,198.599-198.601
	C1071.677,250.862,1160.596,339.78,1160.596,449.463z"/>
<path id="cercle_3" fill="none" stroke="#3D9546" stroke-width="4" stroke-miterlimit="10" d="M1166.038,449.463
	c0,112.688-91.355,204.042-204.045,204.042c-112.687,0-204.041-91.354-204.041-204.042c0-112.689,91.354-204.043,204.041-204.043
	C1074.683,245.42,1166.038,336.774,1166.038,449.463z"/>
<text transform="matrix(0.6668 0 0 1 896.6396 370.2944)" fill="#575756" font-family="'HelveticaNeueLTStd-BlkEx'" font-size="57.8535" letter-spacing="-1.5">ACTUS</text>
<text transform="matrix(0.6668 0 0 1 805.438 486.8325)"><tspan x="0" y="0" fill="#662482" font-family="'HelveticaNeueLTStd-BlkEx'" font-size="42.6537" letter-spacing="-1.5">BASKET</tspan><tspan x="7.849" y="32.878" fill="#662482" font-family="'HelveticaNeueLTStd-BlkEx'" font-size="42.6537" letter-spacing="-1.5">PLANET</tspan></text>
<text transform="matrix(0.6668 0 0 1 871.6621 452.7749)" fill="#575756" font-family="'HelveticaNeueLTStd-BlkEx'" font-size="44.7078" letter-spacing="-1.5">CLASSEMENT</text>
<text transform="matrix(0.6668 0 0 1 823.874 580.1914)" fill="#575756" font-family="'HelveticaNeueLTStd-BlkEx'" font-size="33.1919" letter-spacing="-1.5">INSCRIPTION</text>
<text transform="matrix(0.6668 0 0 1 874.376 551.4668)" fill="#575756" font-family="'HelveticaNeueLTStd-BlkEx'" font-size="40.5942" letter-spacing="-1.5">CALENDRIER</text>
<text transform="matrix(0.6668 0 0 1 828.6328 417.1226)" fill="#575756" font-family="'HelveticaNeueLTStd-BlkEx'" font-size="57.8535" letter-spacing="-1.5">CONTACT</text>
<text transform="matrix(0.6668 0 0 1 865.1436 323.4888)" fill="#575756" font-family="'HelveticaNeueLTStd-BlkEx'" font-size="32.0087" letter-spacing="-1.5">ACCUEIL</text>
</svg>
